<mxfile host="app.diagrams.net" modified="2023-10-20T15:11:06.688Z" agent="Mozilla/5.0 (Windows NT 11.0; Win64; x64; rv:114.0) Gecko/20000101 Firefox/114.0/KB8zJ2uk7Dt4-82" version="22.0.6" etag="W2GkRjpPTudh1n9FjGTQ" type="github">
  <diagram name="Page-1" id="ONU9c8nHbTdjxPXM_6Pj">
    <mxGraphModel>
      <root>
        <mxCell id="0" />
        <mxCell id="1" parent="0" />
      </root>
    </mxGraphModel>
  </diagram>
</mxfile>
